<mxfile host="app.diagrams.net" modified="2023-05-04T14:56:22.263Z" agent="Mozilla/5.0 (Windows NT 10.0; Win64; x64) AppleWebKit/537.36 (KHTML, like Gecko) Chrome/112.0.0.0 Safari/537.36 Edg/112.0.1722.58" version="21.2.7" etag="-Kpy_J7I3voPdguNLR1M" type="github">
  <diagram name="第 1 页" id="O9N7D-Ch1aH16yCQyOPa">
    <mxGraphModel>
      <root>
        <mxCell id="0" />
        <mxCell id="1" parent="0" />
      </root>
    </mxGraphModel>
  </diagram>
</mxfile>
